<svg version="1.1" viewBox="0.0 0.0 377.9527559055118 377.9527559055118" fill="none" stroke="none" stroke-linecap="square" stroke-miterlimit="10" xmlns:xlink="http://www.w3.org/1999/xlink" xmlns="http://www.w3.org/2000/svg"><clipPath id="p.0"><path d="m0 0l377.95276 0l0 377.95276l-377.95276 0l0 -377.95276z" clip-rule="nonzero"/></clipPath><g clip-path="url(#p.0)"><path fill="#000000" fill-opacity="0.0" d="m0 0l377.95276 0l0 377.95276l-377.95276 0z" fill-rule="evenodd"/><path fill="#148395" fill-opacity="0.7" d="m275.65356 278.66302l7.064972 -21.38388l0 0c42.393127 -14.280899 59.67639 -45.451996 39.92862 -72.01294c-19.747803 -26.560944 -70.06378 -39.819168 -116.242386 -30.629776c-46.178604 9.189407 -73.10701 37.819016 -62.211273 66.14148c10.895737 28.32248 56.049774 47.06874 104.317 43.308517z" fill-rule="evenodd"/><path fill="#ff9900" d="m274.49673 233.22096l0 0c0 -6.2273407 5.0764465 -11.275589 11.338562 -11.275589l0 0c3.0072021 0 5.891205 1.1879578 8.017609 3.3025513c2.1264038 2.1145782 3.320984 4.9825745 3.320984 7.9730377l0 0c0 6.2273407 -5.0764465 11.275589 -11.338593 11.275589l0 0c-6.2621155 0 -11.338562 -5.0482483 -11.338562 -11.275589z" fill-rule="evenodd"/><path fill="#3d5f65" fill-opacity="0.7" d="m100.84248 244.568l-5.1621857 -21.907822l0 0c-40.971676 -17.902222 -55.45333 -50.443558 -33.456196 -75.17851c21.997135 -24.734947 73.27408 -33.568542 118.46242 -20.407784c45.188354 13.160759 69.49936 44.008766 56.164444 71.26652c-13.334915 27.257751 -59.951645 42.00464 -107.69618 34.06897z" fill-rule="evenodd"/><path fill="#000000" fill-opacity="0.0" d="m141.79594 167.12811l84.53543 0l0 54.803146l-84.53543 0z" fill-rule="evenodd"/><path fill="#ffffff" d="m182.45653 215.54219q-1.640625 -0.109375 -3.171875 -1.15625q-1.515625 -1.03125 -2.90625 -1.984375q-0.90625 -0.90625 -1.40625 -1.9375q-0.5 -1.046875 -0.78125 -2.765625q-0.203125 -1.015625 0 -2.609375q0.21875 -1.59375 0.703125 -3.25q0.484375 -1.65625 0.90625 -2.609375q0.640625 -1.5 1.625 -3.234375q0.984375 -1.734375 1.96875 -3.296875q0.984375 -1.578125 1.578125 -2.546875q0.375 -0.359375 0.34375 -0.390625q-0.03125 -0.03125 -0.03125 -0.03125q0 -0.265625 0.5625 -1.359375q0.5625 -1.09375 0.984375 -1.9375q0.8125 -0.859375 0.90625 -1.390625q0.109375 -0.53125 -0.15625 -0.859375q-0.109375 -0.203125 0.421875 -0.84375q0.546875 -0.640625 1.53125 -1.46875q0.984375 -0.828125 2.203125 -1.53125q1.28125 -1.0 2.484375 -1.078125q1.203125 -0.09375 1.421875 0.5q0 0.15625 0.609375 0.078125q0.609375 -0.078125 1.4375 -0.265625q0.828125 -0.1875 1.46875 -0.296875q0.265625 -0.3125 1.25 -0.5q0.984375 -0.1875 2.3125 -0.34375q0.703125 0.046875 1.5 0.03125q0.796875 -0.03125 1.375 -0.078125q0.59375 -0.0625 0.59375 -0.0625q0.375 -0.109375 1.015625 0.34375q0.640625 0.453125 1.0625 1.40625q0.375 0.96875 -0.5 1.578125q-0.875 0.609375 -3.0625 0.875q-1.609375 0.21875 -2.59375 0.359375q-0.984375 0.125 -2.046875 0.3125q-1.0625 0.1875 -2.9375 0.609375q-1.328125 0.265625 -2.21875 0.515625q-0.875 0.234375 -1.546875 0.765625q-0.65625 0.53125 -1.453125 1.765625q-0.375 0.265625 -0.96875 1.390625q-0.578125 1.109375 -1.171875 2.234375q-1.484375 2.078125 -2.34375 3.25q-0.859375 1.171875 -0.640625 1.4375q0 0 0.6875 0.171875q0.703125 0.15625 0.90625 0.15625q0.53125 -0.265625 1.296875 -0.375q0.78125 -0.109375 1.265625 -0.21875q3.3125 -0.84375 4.984375 -1.265625q1.6875 -0.4375 2.453125 -0.625q0.78125 -0.1875 1.3125 -0.234375q0.75 -0.59375 1.515625 -0.03125q0.78125 0.5625 1.09375 1.40625q0.375 0.90625 0.03125 1.453125q-0.34375 0.53125 -1.546875 0.9375q-1.203125 0.390625 -3.453125 0.921875q-2.234375 0.53125 -5.6875 1.5q-2.9375 0.84375 -4.84375 1.015625q-1.890625 0.15625 -1.78125 -0.921875q-0.375 -0.203125 -0.828125 0.4375q-0.453125 0.640625 -0.859375 1.765625q-0.390625 1.109375 -0.6875 2.390625q-0.28125 1.28125 -0.34375 2.40625q-0.046875 1.109375 0.15625 1.703125q0.4375 1.21875 1.28125 2.046875q0.859375 0.828125 2.671875 1.359375q1.0625 0.0625 2.078125 0.171875q1.015625 0.09375 2.296875 -0.4375q3.140625 -0.53125 4.546875 -1.109375q1.421875 -0.59375 1.6875 -0.8125q0.4375 -0.203125 0.5625 -0.359375q0.140625 -0.171875 0.40625 -0.171875q-0.171875 0.265625 0.125 0.03125q0.296875 -0.25 0.828125 -0.78125q0.96875 -0.796875 2.03125 -1.078125q1.0625 -0.296875 1.8125 -0.265625q0.75 0.015625 0.796875 0.28125q0.328125 0.53125 -0.234375 1.609375q-0.5625 1.0625 -1.828125 2.296875q-1.25 1.21875 -3.0 2.234375q-2.828125 1.484375 -6.140625 2.09375q-3.296875 0.625 -5.921875 0.671875z" fill-rule="nonzero"/></g></svg>