<svg version="1.1" viewBox="0.0 0.0 377.9527559055118 377.9527559055118" fill="none" stroke="none" stroke-linecap="square" stroke-miterlimit="10" xmlns:xlink="http://www.w3.org/1999/xlink" xmlns="http://www.w3.org/2000/svg"><clipPath id="p.0"><path d="m0 0l377.95276 0l0 377.95276l-377.95276 0l0 -377.95276z" clip-rule="nonzero"/></clipPath><g clip-path="url(#p.0)"><path fill="#000000" fill-opacity="0.0" d="m0 0l377.95276 0l0 377.95276l-377.95276 0z" fill-rule="evenodd"/><path fill="#335055" fill-opacity="0.7" d="m43.54376 124.11636l0 0c1.0610809 -12.129967 11.754936 -21.107574 23.885387 -20.052048l9.405952 0.8184509l0 0l47.055115 4.09449l87.83115 7.642601c5.825241 0.5068817 11.209488 3.306984 14.968262 7.784317c3.7587738 4.4773254 5.584152 10.265121 5.0746155 16.090149l-4.8031616 54.908127l0 0l-2.8818817 32.944885l0 0c-1.0610809 12.129974 -11.754944 21.107574 -23.885391 20.052048l-87.83115 -7.6425934l-24.96788 14.425247l-22.087242 -18.519745l-9.405945 -0.8184509c-12.130455 -1.0555267 -21.103954 -11.744492 -20.04287 -23.87445l0 0l2.8818893 -32.944885l0 0z" fill-rule="evenodd"/><path fill="#169eb4" fill-opacity="0.7" d="m334.40927 149.48108l0 0c-1.0610962 -12.129959 -11.754395 -21.101334 -23.884186 -20.038101l-9.417664 0.8255005l0 0l-47.07086 4.125992l-87.86911 7.7021484c-5.8249207 0.51057434 -11.208862 3.3142242 -14.967407 7.794174c-3.7585297 4.4799347 -5.5838013 10.269211 -5.0742493 16.094223l4.8031464 54.908142l0 0l2.881897 32.944885l0 0c1.0610809 12.129974 11.754395 21.101318 23.88417 20.038086l87.86911 -7.702118l24.975739 14.409485l22.095123 -18.535492l9.417664 -0.8255005c12.129791 -1.0632324 21.102753 -11.758438 20.041656 -23.888397l0 0l-2.881897 -32.944885l0 0z" fill-rule="evenodd"/><path fill="#ffffff" d="m162.63393 182.67828l0 0c0 -1.7395172 1.410141 -3.1496735 3.1496582 -3.1496735l12.598297 0l0 0c0.83535767 0 1.6364746 0.33184814 2.2271576 0.92251587c0.590683 0.590683 0.92251587 1.3918152 0.92251587 2.2271576l0 12.598297c0 1.7395172 -1.4101562 3.1496735 -3.1496735 3.1496735l-12.598297 0c-1.7395172 0 -3.1496582 -1.4101562 -3.1496582 -3.1496735z" fill-rule="evenodd"/><path fill="#ffffff" d="m196.4203 182.69218l0 0c0 -1.7395172 1.4101562 -3.1520233 3.1496735 -3.1549225l12.598297 -0.020996094l0 0c0.8353424 -0.0013885498 1.6364746 0.32911682 2.2271576 0.918808c0.5906677 0.58969116 0.92251587 1.3902588 0.92251587 2.2256165l0 12.598297c0 1.7395172 -1.4101562 3.152008 -3.1496735 3.1549072l-12.598297 0.021011353c-1.7395172 0.00289917 -3.1496735 -1.4049072 -3.1496735 -3.1444244z" fill-rule="evenodd"/></g></svg>